<svg xmlns="http://www.w3.org/2000/svg" viewBox="0 0 175.212 175.212">
  <defs>
    <linearGradient id="a" x1="85.915" x2="85.915" y1="174.212" y2="-.5" gradientUnits="userSpaceOnUse">
      <stop offset="0" stop-color="#20b038"/>
      <stop offset="1" stop-color="#60d66a"/>
    </linearGradient>
  </defs>
  <path fill="url(#a)" d="M87.606 0C39.223 0 0 39.223 0 87.606c0 48.383 39.223 87.606 87.606 87.606 48.383 0 87.606-39.223 87.606-87.606C175.212 39.223 135.989 0 87.606 0z"/>
  <path fill="#fff" d="M120.83 97.393c-1.5-4.5-7.5-8.5-12.5-10-3-1-7.5-1.5-13.5 4.5-6 6-7.5 11.5-7.5 14s1.5 4.5 2.5 5.5c1 1 2 2.5 1 4.5s-3.5 8.5-5 10.5-4 3-5.5 2.5-4-2.5-7-5.5c-3-3-6-8-6-14s6.5-13.5 9-16.5 7.5-9 12-12 11-6 17-6.5 10.5 1 14.5 4.5 6 6.5 7 11.5 1 9.5-1 12z"/>
  <path fill="#fff" d="M87.606 174.212c-23.5 0-45.5-9.5-62-26s-26-38.5-26-62 9.5-45.5 26-62 38.5-26 62-26 45.5 9.5 62 26 26 38.5 26 62-9.5 45.5-26 62-38.5 26-62 26zm0-169.212c-22.5 0-43.5 8.5-59.5 24.5s-24.5 37-24.5 59.5 8.5 43.5 24.5 59.5 37 24.5 59.5 24.5 43.5-8.5 59.5-24.5 24.5-37 24.5-59.5-8.5-43.5-24.5-59.5-37-24.5-59.5-24.5z"/>
</svg>
